<svg class="svg-icon" style="width: 1em; height: 1em;vertical-align: middle;fill: currentColor;overflow: hidden;" viewBox="0 0 1024 1024" version="1.1" xmlns="http://www.w3.org/2000/svg"><path d="M512 512V72C269 72 72 269 72 512s197 440 440 440 440-197 440-440H512z m0 400.9c-221.4 0-400.9-179.5-400.9-400.9 0-208.2 158.7-379.3 361.8-399v438.1H911c-19.7 203.1-190.8 361.8-399 361.8z m39.1-839.1v399.1h399.1C931.5 261.1 762.9 92.5 551.1 73.8z m39.1 45c158.6 31.4 283.6 156.3 315 315h-315v-315z"  /></svg>